<svg xmlns="http://www.w3.org/2000/svg" viewBox="0 0 192 192" width="100%" height="100%">
	<style>
		tspan { white-space:pre }
		.shp0 { fill: #282828 } 
		.shp1 { fill: #ffffff } 
	</style>
	<g >
		<path class="shp0" d="M180.32,53.36c-2.02,-7.62 -7.99,-13.62 -15.56,-15.66c-13.72,-3.7 -68.76,-3.7 -68.76,-3.7c0,0 -55.04,0 -68.76,3.7c-7.57,2.04 -13.54,8.04 -15.56,15.66c-3.68,13.81 -3.68,42.64 -3.68,42.64c0,0 0,28.82 3.68,42.64c2.02,7.62 7.99,13.62 15.56,15.66c13.72,3.7 68.76,3.7 68.76,3.7c0,0 55.04,0 68.76,-3.7c7.57,-2.04 13.54,-8.04 15.56,-15.66c3.68,-13.82 3.68,-42.64 3.68,-42.64c0,0 0,-28.82 -3.68,-42.64z" />
		<path class="shp1" d="M78,122.17l46,-26.17l-46,-26.17z" />
	</g>
</svg>